<?xml version="1.0" encoding="utf-8"?>
<!-- Generator: Adobe Illustrator 19.0.0, SVG Export Plug-In . SVG Version: 6.00 Build 0)  -->
<svg version="1.1" id="图层_1" xmlns="http://www.w3.org/2000/svg" xmlns:xlink="http://www.w3.org/1999/xlink" x="0px" y="0px"
	 viewBox="0 0 12 12" style="enable-background:new 0 0 12 12;" xml:space="preserve">
<style type="text/css">
	.st0{fill:#2ECCFF;}
</style>
<g id="图层_3">
	<g id="XMLID_1042_">
		<path id="XMLID_1043_" class="st0" d="M9,10.9L9,10.9c-0.7,0-1.6,0-2.5,0v-1c2.2-0.3,4-2.1,4-4.4C10.5,5.2,10.3,5,10,5
			S9.5,5.3,9.5,5.6C9.5,7.4,7.9,9,6,9S2.5,7.4,2.5,5.5C2.5,5.2,2.3,5,2,5S1.5,5.3,1.5,5.6c0,2.3,1.8,4.2,4,4.4v1c-1.2,0-2.2,0-2.4,0
			s-0.4,0.1-0.5,0.3s0,0.6,0.3,0.7c0.1,0,0,0,1.8,0L9,12c0.3,0,0.5-0.2,0.5-0.5S9.3,10.9,9,10.9z"/>
		<path id="XMLID_1046_" class="st0" d="M6,7.9c1.7,0,3-1.3,3-3V3c0-1.7-1.3-3-3-3S3,1.3,3,3v2C3,6.6,4.4,7.9,6,7.9z M4,3
			c0-1.1,0.9-2,2-2s2,0.9,2,2v2c0,1.1-0.9,2-2,2S4,6,4,5V3z"/>
	</g>
</g>
</svg>
