<?xml version="1.0" encoding="utf-8"?>
<!-- Generator: Adobe Illustrator 19.0.0, SVG Export Plug-In . SVG Version: 6.00 Build 0)  -->
<svg version="1.1" id="图层_1" xmlns="http://www.w3.org/2000/svg" xmlns:xlink="http://www.w3.org/1999/xlink" x="0px" y="0px"
	 viewBox="0 0 12 12" style="enable-background:new 0 0 12 12;" xml:space="preserve">
<style type="text/css">
	.st0{fill:#2ECCFF;}
</style>
<g id="XMLID_1_">
	<path id="XMLID_2_" class="st0" d="M11.5,10.8h-11C0.2,10.8,0,11,0,11.3s0.2,0.5,0.5,0.5h11c0.3,0,0.5-0.2,0.5-0.5
		S11.8,10.8,11.5,10.8z"/>
	<path id="XMLID_10_" class="st0" d="M0.5,9.6h2.1c0.1,0,0.3-0.1,0.3-0.1l6-6c0.2-0.3,0.4-0.7,0.4-1.1c0-0.4-0.1-0.8-0.4-1.1
		L8.2,0.6C7.6,0,6.7,0,6.1,0.6l-6,6C0.1,6.7,0,6.9,0,7v2.1C0,9.4,0.2,9.6,0.5,9.6z M7.6,1.2l0.7,0.7c0,0.1,0.1,0.3,0.1,0.4
		c0,0.2,0,0.3-0.1,0.4L7.9,3.1L6.5,1.7l0.5-0.5C7.1,1,7.4,1,7.6,1.2z M1,7.1l4.7-4.7l1.4,1.5L2.4,8.6H1V7.1z"/>
</g>
</svg>
