<?xml version="1.0" standalone="no"?><!DOCTYPE svg PUBLIC "-//W3C//DTD SVG 1.1//EN" "http://www.w3.org/Graphics/SVG/1.1/DTD/svg11.dtd"><svg t="1568885957003" class="icon" viewBox="0 0 1280 1024" version="1.1" xmlns="http://www.w3.org/2000/svg" p-id="11054" xmlns:xlink="http://www.w3.org/1999/xlink" width="250" height="200"><defs><style type="text/css"></style></defs><path d="M1213.44 318.08H59.2c-58.56 0-61.504 28.544-58.368 63.424l52.48 573.184c3.2 34.88 11.52 63.36 70.016 63.36h1025.92c59.712 0 66.816-28.48 69.952-63.36l52.48-573.184c3.2-34.88 0.32-63.36-58.24-63.36z m-42.368-139.904c-7.04-28.032-41.664-50.944-76.928-50.944H660.48c-35.264 0-84.608-20.16-109.568-44.864L513.088 44.928C488.128 20.224 438.848 0 403.52 0H196.352c-35.2 0-67.328 28.48-71.168 63.232l-18.56 165.824h1077.248l-12.8-50.88z" p-id="11055" fill="#999FB2"></path></svg>