<?xml version="1.0" encoding="utf-8"?>
<!-- Generator: Adobe Illustrator 19.0.0, SVG Export Plug-In . SVG Version: 6.00 Build 0)  -->
<svg version="1.1" id="图层_1" xmlns="http://www.w3.org/2000/svg" xmlns:xlink="http://www.w3.org/1999/xlink" x="0px" y="0px"
	 viewBox="0 0 12 12" style="enable-background:new 0 0 12 12;" xml:space="preserve">
<style type="text/css">
	.st0{fill:#2ECCFF;}
</style>
<g id="图层_3">
	<g id="XMLID_1022_">
		<path id="XMLID_1025_" class="st0" d="M11.5,2h-0.6H8.5V1c0-0.6-0.4-1-1-1h-3c-0.6,0-1,0.4-1,1v1H1.1H0.5C0.2,2,0,2.2,0,2.5
			S0.2,3,0.5,3h0.7l0.9,7.7C2.2,11.4,2.8,12,3.6,12h4.9c0.8,0,1.4-0.6,1.5-1.3L10.8,3h0.7C11.8,3,12,2.8,12,2.5S11.8,2,11.5,2z
			 M4.5,1h3v1h-3V1z M8.9,10.6c0,0.3-0.2,0.4-0.5,0.4H3.6c-0.3,0-0.5-0.2-0.5-0.4L2.2,3h1.3h5h1.3L8.9,10.6z"/>
		<path id="XMLID_1027_" class="st0" d="M4.5,4C4.2,4,4,4.2,4,4.5v5C4,9.8,4.2,10,4.5,10S5,9.8,5,9.5v-5C5,4.2,4.8,4,4.5,4z"/>
		<path id="XMLID_1028_" class="st0" d="M7.5,4C7.2,4,7,4.2,7,4.5v5C7,9.8,7.2,10,7.5,10S8,9.8,8,9.5v-5C8,4.2,7.8,4,7.5,4z"/>
	</g>
</g>
</svg>
